<mxfile host="app.diagrams.net" agent="Mozilla/5.0 (Windows NT 10.0; Win64; x64) AppleWebKit/537.36 (KHTML, like Gecko) Chrome/141.0.0.0 Safari/537.36" version="28.2.7">
  <diagram name="Página-1" id="x7uFeTkZGOcGGUuAfZ5G">
    <mxGraphModel dx="1426" dy="785" grid="1" gridSize="10" guides="1" tooltips="1" connect="1" arrows="1" fold="1" page="1" pageScale="1" pageWidth="1654" pageHeight="2336" math="0" shadow="0">
      <root>
        <mxCell id="0" />
        <mxCell id="1" parent="0" />
        <mxCell id="WfhGkfNJceTfrBqpxu6i-1" value="ADMINISTRADOR" style="swimlane;childLayout=stackLayout;horizontal=1;startSize=50;horizontalStack=0;rounded=1;fontSize=14;fontStyle=0;strokeWidth=2;resizeParent=0;resizeLast=1;shadow=0;dashed=0;align=center;arcSize=4;whiteSpace=wrap;html=1;" parent="1" vertex="1">
          <mxGeometry x="160" y="140" width="160" height="130" as="geometry" />
        </mxCell>
        <mxCell id="WfhGkfNJceTfrBqpxu6i-2" value="&lt;u&gt;Id&lt;/u&gt;&lt;div&gt;Nome&lt;/div&gt;&lt;div&gt;User&lt;/div&gt;&lt;div&gt;Pass&lt;/div&gt;" style="align=left;strokeColor=none;fillColor=none;spacingLeft=4;spacingRight=4;fontSize=12;verticalAlign=top;resizable=0;rotatable=0;part=1;html=1;whiteSpace=wrap;" parent="WfhGkfNJceTfrBqpxu6i-1" vertex="1">
          <mxGeometry y="50" width="160" height="80" as="geometry" />
        </mxCell>
        <mxCell id="WfhGkfNJceTfrBqpxu6i-3" value="TIPO_IMOVEL" style="swimlane;childLayout=stackLayout;horizontal=1;startSize=50;horizontalStack=0;rounded=1;fontSize=14;fontStyle=0;strokeWidth=2;resizeParent=0;resizeLast=1;shadow=0;dashed=0;align=center;arcSize=4;whiteSpace=wrap;html=1;" parent="1" vertex="1">
          <mxGeometry x="580" y="90" width="160" height="120" as="geometry" />
        </mxCell>
        <mxCell id="WfhGkfNJceTfrBqpxu6i-4" value="&lt;div&gt;&lt;u&gt;Id&lt;/u&gt;&lt;/div&gt;&lt;div&gt;TipoImovel&lt;/div&gt;" style="align=left;strokeColor=none;fillColor=none;spacingLeft=4;spacingRight=4;fontSize=12;verticalAlign=top;resizable=0;rotatable=0;part=1;html=1;whiteSpace=wrap;" parent="WfhGkfNJceTfrBqpxu6i-3" vertex="1">
          <mxGeometry y="50" width="160" height="70" as="geometry" />
        </mxCell>
        <mxCell id="WfhGkfNJceTfrBqpxu6i-5" value="Cidade" style="swimlane;childLayout=stackLayout;horizontal=1;startSize=50;horizontalStack=0;rounded=1;fontSize=14;fontStyle=0;strokeWidth=2;resizeParent=0;resizeLast=1;shadow=0;dashed=0;align=center;arcSize=4;whiteSpace=wrap;html=1;" parent="1" vertex="1">
          <mxGeometry x="1130" y="130" width="160" height="120" as="geometry" />
        </mxCell>
        <mxCell id="WfhGkfNJceTfrBqpxu6i-6" value="&lt;u&gt;Id&lt;/u&gt;&lt;div&gt;&lt;span style=&quot;font-size: 14px; text-align: center; background-color: transparent; color: light-dark(rgb(0, 0, 0), rgb(255, 255, 255));&quot;&gt;Cidade&lt;/span&gt;&lt;/div&gt;" style="align=left;strokeColor=none;fillColor=none;spacingLeft=4;spacingRight=4;fontSize=12;verticalAlign=top;resizable=0;rotatable=0;part=1;html=1;whiteSpace=wrap;" parent="WfhGkfNJceTfrBqpxu6i-5" vertex="1">
          <mxGeometry y="50" width="160" height="70" as="geometry" />
        </mxCell>
        <mxCell id="z7CBJkemR01QLc5ZUInY-9" style="edgeStyle=orthogonalEdgeStyle;rounded=0;orthogonalLoop=1;jettySize=auto;html=1;entryX=0;entryY=0.5;entryDx=0;entryDy=0;exitX=0;exitY=0.5;exitDx=0;exitDy=0;" edge="1" parent="1" source="WfhGkfNJceTfrBqpxu6i-7" target="WfhGkfNJceTfrBqpxu6i-1">
          <mxGeometry relative="1" as="geometry" />
        </mxCell>
        <mxCell id="WfhGkfNJceTfrBqpxu6i-7" value="ADMINISTRADOR_LOG" style="swimlane;childLayout=stackLayout;horizontal=1;startSize=50;horizontalStack=0;rounded=1;fontSize=14;fontStyle=0;strokeWidth=2;resizeParent=0;resizeLast=1;shadow=0;dashed=0;align=center;arcSize=4;whiteSpace=wrap;html=1;" parent="1" vertex="1">
          <mxGeometry x="160" y="380" width="160" height="130" as="geometry" />
        </mxCell>
        <mxCell id="WfhGkfNJceTfrBqpxu6i-8" value="&lt;u&gt;Id&lt;/u&gt;&lt;div&gt;IdAdministrador&lt;/div&gt;&lt;div&gt;DataLog&lt;/div&gt;&lt;div&gt;Log&lt;/div&gt;" style="align=left;strokeColor=none;fillColor=none;spacingLeft=4;spacingRight=4;fontSize=12;verticalAlign=top;resizable=0;rotatable=0;part=1;html=1;whiteSpace=wrap;" parent="WfhGkfNJceTfrBqpxu6i-7" vertex="1">
          <mxGeometry y="50" width="160" height="80" as="geometry" />
        </mxCell>
        <mxCell id="z7CBJkemR01QLc5ZUInY-1" value="Localidade" style="swimlane;childLayout=stackLayout;horizontal=1;startSize=50;horizontalStack=0;rounded=1;fontSize=14;fontStyle=0;strokeWidth=2;resizeParent=0;resizeLast=1;shadow=0;dashed=0;align=center;arcSize=4;whiteSpace=wrap;html=1;" vertex="1" parent="1">
          <mxGeometry x="1130" y="350" width="160" height="120" as="geometry" />
        </mxCell>
        <mxCell id="z7CBJkemR01QLc5ZUInY-2" value="&lt;u&gt;Id&lt;/u&gt;&lt;div&gt;&lt;span style=&quot;font-size: 14px; text-align: center;&quot;&gt;Localidade&lt;/span&gt;&lt;/div&gt;" style="align=left;strokeColor=none;fillColor=none;spacingLeft=4;spacingRight=4;fontSize=12;verticalAlign=top;resizable=0;rotatable=0;part=1;html=1;whiteSpace=wrap;" vertex="1" parent="z7CBJkemR01QLc5ZUInY-1">
          <mxGeometry y="50" width="160" height="70" as="geometry" />
        </mxCell>
        <mxCell id="z7CBJkemR01QLc5ZUInY-3" value="TIPO_ATRIBUTO" style="swimlane;childLayout=stackLayout;horizontal=1;startSize=50;horizontalStack=0;rounded=1;fontSize=14;fontStyle=0;strokeWidth=2;resizeParent=0;resizeLast=1;shadow=0;dashed=0;align=center;arcSize=4;whiteSpace=wrap;html=1;" vertex="1" parent="1">
          <mxGeometry x="490" y="690" width="160" height="120" as="geometry" />
        </mxCell>
        <mxCell id="z7CBJkemR01QLc5ZUInY-4" value="&lt;div&gt;&lt;span style=&quot;background-color: transparent; color: light-dark(rgb(0, 0, 0), rgb(255, 255, 255));&quot;&gt;&lt;u&gt;Id&lt;/u&gt;&lt;/span&gt;&lt;/div&gt;&lt;div&gt;&lt;span style=&quot;background-color: transparent; color: light-dark(rgb(0, 0, 0), rgb(255, 255, 255));&quot;&gt;Ordem&lt;/span&gt;&lt;/div&gt;&lt;div&gt;TipoAtributo&lt;/div&gt;&lt;div&gt;IdAtributo&lt;/div&gt;" style="align=left;strokeColor=none;fillColor=none;spacingLeft=4;spacingRight=4;fontSize=12;verticalAlign=top;resizable=0;rotatable=0;part=1;html=1;whiteSpace=wrap;" vertex="1" parent="z7CBJkemR01QLc5ZUInY-3">
          <mxGeometry y="50" width="160" height="70" as="geometry" />
        </mxCell>
        <mxCell id="z7CBJkemR01QLc5ZUInY-5" value="ATRIBUTO" style="swimlane;childLayout=stackLayout;horizontal=1;startSize=50;horizontalStack=0;rounded=1;fontSize=14;fontStyle=0;strokeWidth=2;resizeParent=0;resizeLast=1;shadow=0;dashed=0;align=center;arcSize=4;whiteSpace=wrap;html=1;" vertex="1" parent="1">
          <mxGeometry x="960" y="670" width="160" height="130" as="geometry" />
        </mxCell>
        <mxCell id="z7CBJkemR01QLc5ZUInY-6" value="&lt;u&gt;Id&lt;/u&gt;&lt;div&gt;&lt;span style=&quot;background-color: transparent; color: light-dark(rgb(0, 0, 0), rgb(255, 255, 255));&quot;&gt;Ordem&lt;/span&gt;&lt;/div&gt;&lt;div&gt;Atributo&lt;/div&gt;&lt;div&gt;Icone&lt;/div&gt;" style="align=left;strokeColor=none;fillColor=none;spacingLeft=4;spacingRight=4;fontSize=12;verticalAlign=top;resizable=0;rotatable=0;part=1;html=1;whiteSpace=wrap;" vertex="1" parent="z7CBJkemR01QLc5ZUInY-5">
          <mxGeometry y="50" width="160" height="80" as="geometry" />
        </mxCell>
        <mxCell id="z7CBJkemR01QLc5ZUInY-7" value="Imovel" style="swimlane;childLayout=stackLayout;horizontal=1;startSize=50;horizontalStack=0;rounded=1;fontSize=14;fontStyle=0;strokeWidth=2;resizeParent=0;resizeLast=1;shadow=0;dashed=0;align=center;arcSize=4;whiteSpace=wrap;html=1;" vertex="1" parent="1">
          <mxGeometry x="580" y="340" width="160" height="170" as="geometry" />
        </mxCell>
        <mxCell id="z7CBJkemR01QLc5ZUInY-8" value="&lt;u&gt;Id&lt;/u&gt;&lt;div&gt;&lt;span style=&quot;background-color: transparent; color: light-dark(rgb(0, 0, 0), rgb(255, 255, 255));&quot;&gt;Titulo&lt;/span&gt;&lt;div&gt;&lt;span style=&quot;background-color: transparent; color: light-dark(rgb(0, 0, 0), rgb(255, 255, 255));&quot;&gt;Preço&lt;/span&gt;&lt;/div&gt;&lt;div&gt;Foto&lt;/div&gt;&lt;div&gt;LatitudeLongitude&lt;/div&gt;&lt;div&gt;NumWc&lt;/div&gt;&lt;div&gt;NumQuartos&lt;/div&gt;&lt;/div&gt;" style="align=left;strokeColor=none;fillColor=none;spacingLeft=4;spacingRight=4;fontSize=12;verticalAlign=top;resizable=0;rotatable=0;part=1;html=1;whiteSpace=wrap;" vertex="1" parent="z7CBJkemR01QLc5ZUInY-7">
          <mxGeometry y="50" width="160" height="120" as="geometry" />
        </mxCell>
        <mxCell id="z7CBJkemR01QLc5ZUInY-13" value="TEM" style="swimlane;childLayout=stackLayout;horizontal=1;startSize=50;horizontalStack=0;rounded=1;fontSize=14;fontStyle=0;strokeWidth=2;resizeParent=0;resizeLast=1;shadow=0;dashed=0;align=center;arcSize=4;whiteSpace=wrap;html=1;" vertex="1" parent="1">
          <mxGeometry x="730" y="560" width="160" height="130" as="geometry" />
        </mxCell>
        <mxCell id="z7CBJkemR01QLc5ZUInY-14" value="&lt;u&gt;IdAtributo&lt;/u&gt;&lt;div&gt;&lt;u&gt;IdImovel&lt;br&gt;&lt;/u&gt;&lt;div&gt;DataRelacao&lt;div&gt;Quantidade&lt;/div&gt;&lt;div&gt;&lt;br&gt;&lt;/div&gt;&lt;/div&gt;&lt;/div&gt;" style="align=left;strokeColor=none;fillColor=none;spacingLeft=4;spacingRight=4;fontSize=12;verticalAlign=top;resizable=0;rotatable=0;part=1;html=1;whiteSpace=wrap;" vertex="1" parent="z7CBJkemR01QLc5ZUInY-13">
          <mxGeometry y="50" width="160" height="80" as="geometry" />
        </mxCell>
        <mxCell id="z7CBJkemR01QLc5ZUInY-16" style="edgeStyle=orthogonalEdgeStyle;rounded=0;orthogonalLoop=1;jettySize=auto;html=1;entryX=-0.006;entryY=0.163;entryDx=0;entryDy=0;entryPerimeter=0;exitX=1;exitY=0.175;exitDx=0;exitDy=0;exitPerimeter=0;" edge="1" parent="1" source="z7CBJkemR01QLc5ZUInY-14" target="z7CBJkemR01QLc5ZUInY-6">
          <mxGeometry relative="1" as="geometry" />
        </mxCell>
        <mxCell id="z7CBJkemR01QLc5ZUInY-17" style="edgeStyle=orthogonalEdgeStyle;rounded=0;orthogonalLoop=1;jettySize=auto;html=1;entryX=-0.006;entryY=0.117;entryDx=0;entryDy=0;entryPerimeter=0;exitX=-0.006;exitY=0.35;exitDx=0;exitDy=0;exitPerimeter=0;" edge="1" parent="1" source="z7CBJkemR01QLc5ZUInY-14" target="z7CBJkemR01QLc5ZUInY-8">
          <mxGeometry relative="1" as="geometry" />
        </mxCell>
        <mxCell id="z7CBJkemR01QLc5ZUInY-21" style="edgeStyle=orthogonalEdgeStyle;rounded=0;orthogonalLoop=1;jettySize=auto;html=1;entryX=0;entryY=0.25;entryDx=0;entryDy=0;exitX=1.006;exitY=0.857;exitDx=0;exitDy=0;exitPerimeter=0;" edge="1" parent="1" source="z7CBJkemR01QLc5ZUInY-4" target="z7CBJkemR01QLc5ZUInY-6">
          <mxGeometry relative="1" as="geometry" />
        </mxCell>
      </root>
    </mxGraphModel>
  </diagram>
</mxfile>
